<?xml version="1.0" encoding="UTF-8"?>
<svg version="1.1" viewBox="0 0 1600 904" width="1280" height="1280" xmlns="http://www.w3.org/2000/svg">
<path transform="translate(585 145)" d="m0 0c13.5-0.665 26.8 4.07 38.6 10.2 0.99 0.498 1.98 0.995 3 1.51 16.5 8.55 25.4 22.8 31.3 40.1 2.04 6.62 2.73 13.4 3.5 20.2 1.27 10.7 3.88 21.1 6.57 31.5 0.607 2.45 1.13 4.89 1.64 7.36 0.997 4.57 2.6 8.77 4.4 13.1 0.291 0.728 0.583 1.46 0.883 2.21 3.95 9.56 10 13.4 18.9 18.1 1.6 0.849 3.2 1.72 4.78 2.6 7.14 3.65 14.7 5.99 22.3 8.18 1.54 0.483 1.54 0.483 3.11 0.975 5.58 1.56 5.58 1.56 10.9-0.0752 2.05-1.8 3.86-3.67 5.67-5.71 3.71-3.34 5.98-4.56 10.9-5.12 0.936-0.109 0.936-0.109 1.89-0.221 8.41-0.906 16.9-1.3 25.3-1.84 34.5-0.672 34.5-0.672 63.5-16.5 10.7-13.2 13.9-31.3 16.4-47.8 5.25-34.8 5.25-34.8 14.9-48.6 0.652-0.944 1.3-1.89 1.98-2.86 4.29-5.77 8.8-9.6 15-13.1 0.81-0.49 1.62-0.98 2.45-1.48 14.4-8.36 32.7-15.9 49.4-11.6 13 3.69 26.8 8.87 34.7 20.4 8.67 15.8 12.9 34.6 16.8 52.1 0.987 4.43 2.03 8.86 3.08 13.3 0.206 0.873 0.413 1.75 0.626 2.64 1.71 7.13 3.64 14.2 5.63 21.2 3.53 12.5 6.69 25.1 9.87 37.7 0.289 1.14 0.578 2.29 0.876 3.47 1.74 6.97 3.32 14 4.76 21 0.991 4.33 2.34 8.5 3.77 12.7 0.847 3.09 1.41 6.05 1.91 9.21 0.959 6.02 2.33 11.9 3.87 17.8 1.59 6.19 3.17 12.4 4.52 18.6 0.209 0.951 0.418 1.9 0.634 2.88 0.39 1.79 0.766 3.59 1.13 5.38 1.37 6.17 3.53 9.42 8.91 13 0.932 0.514 0.932 0.514 1.88 1.04 7.39 4.54 11.4 9.76 15.3 17.4 0.366 0.697 0.732 1.39 1.11 2.11 0.896 1.71 1.78 3.42 2.67 5.13 0.548 0.0103 1.1 0.0206 1.66 0.0312 5.73 0.109 11.5 0.223 17.2 0.341 2.13 0.0432 4.27 0.0849 6.4 0.125 3.08 0.0581 6.15 0.122 9.23 0.186 0.948 0.0167 1.9 0.0334 2.87 0.0506 13.7 0.303 13.7 0.303 15.7 2.27 0.099 2.05 0.126 4.1 0.127 6.15 0.00156 0.649 0.00312 1.3 0.00473 1.97 0.00401 2.19 8.2e-4 4.38-0.00232 6.58 0.00135 1.57 0.00313 3.13 0.00531 4.7 0.00457 4.26 0.00278 8.52-3.79e-4 12.8-0.00252 4.45-1.86e-4 8.9 0.00139 13.4 0.00182 7.48-5.85e-4 15-0.00534 22.4-0.00544 8.66-0.00368 17.3 0.00183 26 0.00453 7.42 0.00518 14.8 0.00256 22.3-0.00156 4.44-0.00176 8.87 0.00154 13.3 0.00288 4.17 9.04e-4 8.34-0.00489 12.5-0.00133 1.53-9.33e-4 3.07 0.00126 4.6 0.00271 2.09-6.69e-4 4.17-0.00568 6.26-3.77e-4 1.17-7.54e-4 2.34-0.00114 3.55-0.126 2.6-0.126 2.6-1.13 3.6-3.08 0.126-6.14 0.186-9.22 0.205-1.47 0.0148-1.47 0.0148-2.96 0.03-3.3 0.032-6.59 0.0566-9.89 0.0811-2.34 0.0207-4.69 0.0418-7.03 0.0631-6.35 0.0563-12.7 0.105-19.1 0.153-3.95 0.0299-7.9 0.0618-11.9 0.0942-29.2 0.239-58.5 0.408-87.7 0.436-1.66 0.00156-1.66 0.00156-3.36 0.00314-23 0.0174-46-0.0331-68.9-0.0656v-163c37.1-1.16 37.1-1.16 55-1 0.19-0.602 0.379-1.2 0.575-1.82 0.386-1.2 0.386-1.2 0.781-2.42 0.252-0.787 0.503-1.57 0.762-2.39 1.43-3.83 3.52-7.06 5.88-10.4l1.23-1.84c4.31-5.79 10.3-8.29 16.8-11.2 0.343-5.25-0.54-9.28-2.14-14.3-2.24-7.12-3.8-14.4-5.29-21.7-1.17-5.58-2.78-10.8-4.66-16.2-0.82-2.54-1.38-4.97-1.84-7.6-0.901-5.01-2.52-9.72-4.18-14.5-1.31-3.84-2.45-7.66-3.39-11.6-3-12.6-7.34-24.8-11.5-37.1-0.266-0.815-0.531-1.63-0.805-2.47-1.59-4.65-3.6-9.1-7.2-12.5-3.17-1.05-3.17-1.05-6-1-1.52 8.53-0.389 14.1 3 22 0.841 2.16 1.67 4.33 2.5 6.5 0.422 1.09 0.843 2.19 1.28 3.31 5.18 13.5 9.31 27.3 13.2 41.2 0.312 1.1 0.312 1.1 0.63 2.23 0.668 2.36 1.33 4.72 1.99 7.08 0.309 1.09 0.309 1.09 0.625 2.21 1.02 3.66 1.95 7.32 2.75 11 0.898 4.14 2.11 8.11 3.44 12.1 6.54 20.3 6.54 20.3 5.56 27.3-1.68 1.44-1.68 1.44-3.88 2.56-3.32 1.72-4.72 2.93-6.12 6.44h-4c0.0825 0.742 0.165 1.48 0.25 2.25-0.329 3.62-1.67 4.24-4.25 6.75-1.48 2.6-2.76 5.28-4 8-13.1 0.429-21.1 0.322-31-9-2.18-2.2-4.09-4.54-5.98-7-0.99-0.66-1.98-1.32-3-2-0.471-1.65-0.932-3.3-1.33-4.96-0.766-2.34-1.9-4.09-3.23-6.16-2.77-4.77-2.92-8.87-3.14-14.3-0.329-3.91-1.16-7.55-2.18-11.3-1.66-6.21-2.92-12.4-3.97-18.7-1.05-6.24-2.41-12.4-3.88-18.5-0.868-3.73-1.49-7.14-1.27-11-0.932 0.701-1.86 1.4-2.82 2.12-17.9 13.4-34.7 22.5-56.7 26.7-1.52 0.3-3.05 0.601-4.57 0.904-16.8 3.32-16.8 3.32-22.9 3.6-1.32 0.0628-1.32 0.0628-2.68 0.127-0.904 0.0393-1.81 0.0786-2.74 0.119-0.927 0.0432-1.85 0.0864-2.81 0.131-2.27 0.105-4.54 0.208-6.82 0.307-0.102 0.915-0.204 1.83-0.309 2.77-0.724 3.38-1.32 4.51-3.75 6.85-0.548 0.549-1.1 1.1-1.66 1.66-6.14 4.62-11.6 6.41-19.2 6.27-1.28-0.011-1.28-0.011-2.58-0.0222-10.4-0.305-20.5-2.65-30.7-4.93-3.73-0.812-7.48-1.46-11.2-2.11-20.8-3.92-40.3-11-57.6-23.3-0.613-0.435-1.23-0.87-1.86-1.32-4.4-3.2-7.75-6.55-11.1-10.9-2.82-2.28-2.82-2.28-6-2-1.26 5.52-2.51 11-3.75 16.6-0.185 0.82-0.369 1.64-0.559 2.48-2.22 9.91-4.28 19.8-5.88 29.8-2.52 15.4-6.83 30.1-19.7 40-13 9.12-13 9.12-17.1 9.12-0.00239 1.24-0.00478 2.47-0.00724 3.75-0.0574 29.4-0.13 58.8-0.222 88.2-0.0113 3.62-0.0224 7.24-0.0335 10.9-0.0022 0.721-0.00441 1.44-0.00668 2.18-0.0353 11.7-0.0602 23.3-0.0812 35-0.0218 12-0.0549 23.9-0.0984 35.9-0.0241 6.72-0.043 13.4-0.0489 20.2-0.00606 6.33-0.0261 12.7-0.0567 19-0.00877 2.32-0.0125 4.64-0.0107 6.96 0.00166 3.18-0.0151 6.35-0.0363 9.53 0.00485 0.91 0.0097 1.82 0.0147 2.76-0.118 10.8-2.81 20.5-10.1 28.6-7.96 7.68-16.9 10.6-27.8 10.8-12.1-0.236-20.1-3.75-29-11.9-0.882-0.77-0.882-0.77-1.78-1.56-9.29-9.27-9.14-24.4-9.22-36.6 2.23e-4 -3.38 0.0196-6.76 0.0393-10.1-5.5e-4 -2.45-0.00293-4.9-0.00699-7.36-0.00515-5.25 0.00139-10.5 0.0183-15.8 0.0239-7.6 0.0208-15.2 0.0104-22.8-0.0166-12.3-0.0193-24.7-0.00943-37 5.83e-4 -0.737 0.00117-1.47 0.00177-2.23 0.00674-8.23 0.0158-16.5 0.0263-24.7 0.00374-2.99 0.0074-5.98 0.011-8.97 8.91e-4 -0.738 0.00178-1.48 0.0027-2.24 0.0143-12.3 0.00917-24.6-0.0106-36.9-0.0113-7.58-0.0056-15.2 0.0223-22.7 0.02-5.8 0.0145-11.6-3.07e-4 -17.4-0.00186-2.38 0.00486-4.75 0.0208-7.13 0.0206-3.25 0.0104-6.49-0.00725-9.74 0.0134-0.939 0.0268-1.88 0.0406-2.84-0.108-8.67-3.89-13.9-9.72-20.1-8.85-9.8-11.7-20.2-11.9-33.4 0.357-4.28 1.09-8.46 1.88-12.7 0.329-1.83 0.329-1.83 0.664-3.7 3.78-20.7 8.76-41.2 13.6-61.6 1.48-6.25 2.9-12.5 4.25-18.8 0.206-0.952 0.411-1.9 0.623-2.88 0.669-3.1 1.34-6.2 2-9.3 0.235-1.09 0.47-2.19 0.711-3.31 0.491-2.29 0.982-4.58 1.47-6.86 0.504-2.35 1.01-4.69 1.51-7.04 1.31-6.07 2.58-12.1 3.81-18.2 8.68-42.7 8.68-42.7 25.6-56.2 11.2-7.38 26-12.3 39.4-13.6zm392 270c-1.53 2.43-1.53 2.43-1.38 4.62-0.639 0.289-1.28 0.578-1.94 0.875-2.21 0.953-2.21 0.953-3.06 3.12 7.65 1.23 15.3 1.13 23 1.1 1.45-0.00187 2.89-0.00329 4.34-0.00429 3.78-0.00379 7.56-0.0136 11.3-0.0247 3.87-0.0103 7.74-0.0148 11.6-0.0198 7.57-0.0107 15.1-0.0277 22.7-0.0488 0.33-0.66 0.66-1.32 1-2-1.89-3.85-3.85-7.06-7-10-4.48-1.12-8.52-1.11-13 0-2.17 1.88-2.17 1.88-4 4-6.4 3.82-15.8 3.06-23 2-2.6-1.3-4.18-2.63-6.24-4.64-2.97-2.28-5.93-2.11-9.55-1.89-2.5 0.42-2.5 0.42-4.84 2.91z"/>
<path transform="translate(874 2.66)" d="m0 0c0.853-0.00666 1.71-0.0133 2.59-0.0202 1.8-0.0101 3.6-0.0148 5.4-0.0145 2.72-0.00435 5.45-0.0407 8.17-0.0786 9.3-0.0609 17.4 0.094 25.9 4.45 1.02 0.518 2.04 1.04 3.09 1.57 5.99 3.87 11.2 8.19 16.4 13.1 2.05 1.92 4.12 3.67 6.32 5.41 11.1 9.51 14.7 24 15.9 38 0.332 4.7 0.598 9.23 0.277 13.9-0.0799 1.2-0.16 2.4-0.242 3.63-1.37 15.9-7.03 30.4-18.9 41.4-17.4 14.6-38.4 24.8-61.7 23.2-19.4-2.34-38.2-11.5-50.5-26.9-11.2-15-18.8-34.6-16.3-53.4 2.95-16.6 10-34.4 23.6-44.9 0.742-0.763 1.49-1.53 2.25-2.31 6.82-6.67 13.9-11.2 22.8-14.7 0.861-0.345 1.72-0.689 2.61-1.04 4.2-1.18 8-1.28 12.3-1.29z"/>
<path transform="translate(626 2.76)" d="m0 0c0.882-0.00807 1.76-0.0161 2.67-0.0245 1.87-0.0138 3.74-0.0246 5.61-0.0324 1.9-0.0115 3.8-0.0319 5.7-0.0615 20.1-0.314 20.1-0.314 28.1 4.36 0.989 0.518 1.98 1.04 3 1.57 6.07 3.87 11.3 8.2 16.5 13.2 2.39 2.29 2.39 2.29 5.11 3.72 9.2 5.8 13.6 20.9 16.2 30.9 4.06 21.1 0.615 40-9.81 58.6-0.438 0.833-0.877 1.67-1.33 2.52-4.23 7.26-10.9 11.8-17.7 16.5-0.962 0.664-1.92 1.33-2.91 2.01-15 9.5-33.8 13.3-51.1 9.68-2.31-0.555-4.63-1.12-6.94-1.69-0.926-0.182-1.85-0.364-2.8-0.551-14.6-3.2-30.4-14.2-38.5-26.6-0.568-0.932-1.14-1.86-1.72-2.82-0.682-1.09-1.36-2.17-2.07-3.29-9.24-15.1-13.8-32.2-9.71-49.8 0.843-3.32 1.79-6.59 2.77-9.86 0.277-0.99 0.554-1.98 0.84-3 5.21-16.5 18.6-29.3 33.2-38 8.54-4.32 15.3-7.15 24.9-7.24z"/>
<path transform="translate(938 599)" d="m0 0c1.21-0.00315 2.41-0.0063 3.66-0.00955 1.32 0.00202 2.64 0.00405 4 0.00613 1.37-6.74e-4 2.74-0.00165 4.11-0.0029 2.89-0.00148 5.78 6.8e-4 8.67 0.00534 3.65 0.00561 7.3 0.00239 11-0.00345 28.9-0.039 28.9-0.039 43 1.13 0.102 7.63 0.172 15.3 0.22 22.9 0.02 2.59 0.0473 5.18 0.082 7.78 0.0489 3.74 0.0713 7.48 0.0889 11.2 0.0206 1.15 0.0413 2.29 0.0626 3.47 0.00366 13.3-5.09 25.1-14.1 34.9-7.81 7.34-17.7 11.3-28.4 11.8-11.5-0.557-21-7.04-28.8-15.2-8.97-11.2-10.6-23.2-10.5-37.1 4.58e-4 -1.14 9.16e-4 -2.28 0.00139-3.45 3e-3 -2.38 0.0108-4.77 0.0233-7.15 0.0184-3.67 0.0205-7.33 0.0203-11 0.00491-2.32 0.0107-4.64 0.0176-6.96 0.00111-1.1 0.00223-2.2 0.00337-3.34 0.00638-1.01 0.0128-2.02 0.0193-3.06 0.00381-0.891 0.00762-1.78 0.0116-2.7 0.277-4.2 3.19-3.15 6.76-3.16z"/>
</svg>
